<svg width="72" height="102" viewBox="0 0 72 102" fill="none" xmlns="http://www.w3.org/2000/svg">
<path d="M28.2977 0.802206C14.7967 3.62334 3.84961 14.4656 0.969102 28.0505C-1.46316 39.522 1.53409 51.0388 9.19226 59.648C12.9358 63.8561 15.0826 69.4109 15.0826 74.9036V80.8802C15.0826 84.8566 17.6857 88.2347 21.2769 89.4047C22.4578 96.3824 28.5141 101.997 36.0005 101.997C43.485 101.997 49.5428 96.3842 50.7242 89.4047C54.3153 88.2347 56.9185 84.8566 56.9185 80.88V74.9034C56.9185 69.4 59.0724 63.9119 62.9831 59.4502C68.7075 52.9198 71.8599 44.5407 71.8599 35.8567C71.8599 13.2325 51.1513 -3.97227 28.2977 0.802206ZM36.0005 96.0208C32.1592 96.0208 28.7912 93.3776 27.5475 89.8251H44.4534C43.2099 93.3776 39.8419 96.0208 36.0005 96.0208ZM50.9419 80.8802C50.9419 82.5279 49.6014 83.8684 47.9537 83.8684H24.0474C22.3997 83.8684 21.0591 82.5279 21.0591 80.8802V77.8919H50.9419V80.8802ZM58.4887 55.5111C54.3211 60.2658 51.7569 65.9993 51.1063 71.9153H20.8954C20.2455 65.9961 17.6879 60.2062 13.6581 55.6758C7.27557 48.5008 4.78155 38.8835 6.81577 29.2903C9.19026 18.0914 18.3145 8.99408 29.5203 6.65266C48.6501 2.65494 65.8833 17.021 65.8833 35.8567C65.8833 43.0908 63.2572 50.0708 58.4887 55.5111Z" fill="white"/>
</svg>
